<svg width="33" height="32" viewBox="0 0 33 32" fill="none" xmlns="http://www.w3.org/2000/svg">
<path fill-rule="evenodd" clip-rule="evenodd" d="M19.4389 2.36334C18.3586 2.13392 17.2561 2.01215 16.1494 2C15.0151 2.01243 13.9115 2.13414 12.83 2.3632C12.3581 2.46314 12.0051 2.83763 11.9515 3.29513L11.6951 5.48585C11.6214 6.11274 11.2396 6.66968 10.6661 6.98644C10.0901 7.30687 9.39162 7.34522 8.78403 7.09131L6.67242 6.20799C6.23316 6.02425 5.71995 6.12442 5.39204 6.45792C3.86578 8.01017 2.7291 9.87183 2.06751 11.9028C1.92476 12.341 2.08927 12.8173 2.47735 13.0892L4.35098 14.4022C4.88568 14.7763 5.20106 15.3697 5.20106 16.0007C5.20106 16.6317 4.88568 17.225 4.35168 17.5987L2.47687 18.9139C2.08937 19.1858 1.92501 19.6614 2.06726 20.0992C2.7277 22.1321 3.86379 23.9958 5.39001 25.5501C5.71761 25.8837 6.23057 25.9843 6.6699 25.801L8.79093 24.9161C9.3956 24.6647 10.0912 24.7016 10.6641 25.016C11.2369 25.3305 11.6191 25.8852 11.6939 26.5108L11.9484 28.6997C12.001 29.1518 12.3461 29.5236 12.8107 29.6289C14.9948 30.1237 17.2704 30.1237 19.4545 29.6289C19.9191 29.5236 20.2642 29.1518 20.3167 28.6997L20.5717 26.5076C20.6445 25.8808 21.0261 25.3244 21.5994 25.0088C22.1728 24.6933 22.8695 24.6563 23.4762 24.9091L25.5968 25.7938C26.036 25.9771 26.5488 25.8766 26.8764 25.5432C28.4018 23.9907 29.5378 22.1292 30.1992 20.0985C30.3418 19.6605 30.1775 19.1845 29.7898 18.9125L27.9162 17.598C27.381 17.2236 27.0656 16.6303 27.0656 15.9993C27.0656 15.3682 27.381 14.7749 27.915 14.4013L29.787 13.0873C30.1746 12.8153 30.3388 12.3393 30.1961 11.9014C29.5346 9.87039 28.3979 8.00873 26.8716 6.45649C26.5437 6.12299 26.0305 6.02281 25.5912 6.20656L23.4793 7.09003C23.215 7.20138 22.932 7.25809 22.646 7.25767C21.582 7.25661 20.6895 6.49417 20.5733 5.48753L20.3166 3.29513C20.2631 2.83786 19.9104 2.46349 19.4389 2.36334ZM16.1333 20C18.3609 20 20.1667 18.2091 20.1667 16C20.1667 13.7909 18.3609 12 16.1333 12C13.9058 12 12.1 13.7909 12.1 16C12.1 18.2091 13.9058 20 16.1333 20Z" fill="#161616"/>
</svg>
