<svg width="33" height="32" viewBox="0 0 33 32" fill="none" xmlns="http://www.w3.org/2000/svg">
<path fill-rule="evenodd" clip-rule="evenodd" d="M6.05 2C3.82245 2 2.01667 3.79086 2.01667 6V26C2.01667 28.2091 3.82245 30 6.05 30H24.2C25.3138 30 26.2167 29.1046 26.2167 28C26.2167 26.8954 25.3138 26 24.2 26H7.05833C6.50145 26 6.05 25.5523 6.05 25C6.05 24.4477 6.50145 24 7.05833 24H26.2167C28.4442 24 30.25 22.2091 30.25 20V6C30.25 3.79086 28.4442 2 26.2167 2H6.05ZM8.06667 11C8.06667 10.4477 8.51811 10 9.075 10H23.1917C23.7486 10 24.2 10.4477 24.2 11C24.2 11.5523 23.7486 12 23.1917 12H9.075C8.51811 12 8.06667 11.5523 8.06667 11ZM9.075 14C8.51811 14 8.06667 14.4477 8.06667 15C8.06667 15.5523 8.51811 16 9.075 16H23.1917C23.7486 16 24.2 15.5523 24.2 15C24.2 14.4477 23.7486 14 23.1917 14H9.075Z" fill="#161616"/>
</svg>
