<svg width="33" height="32" viewBox="0 0 33 32" fill="none" xmlns="http://www.w3.org/2000/svg">
<g clip-path="url(#clip0_7186_82)">
<path d="M6.05 7.5C6.05 4.46243 8.53296 2 11.5958 2C14.1344 2 16.2745 3.6915 16.9329 6H21.6464C21.6675 5.99956 21.6886 5.99956 21.7096 6H27.4911C28.2099 6 28.867 6.40275 29.1884 7.04033C29.9691 8.58873 29.9691 10.4113 29.1884 11.9597L29.082 12.1708C28.7084 12.9118 27.7999 13.2121 27.0528 12.8416C26.3056 12.4712 26.0028 11.5701 26.3763 10.8292L26.4828 10.618C26.7378 10.1122 26.8096 9.54203 26.698 9H23.701C23.7936 10.0064 23.606 11.0322 23.1384 11.9597L23.032 12.1708C22.6584 12.9118 21.7499 13.2121 21.0028 12.8416C20.2556 12.4712 19.9528 11.5702 20.3263 10.8292L20.4328 10.618C20.6878 10.1122 20.7596 9.54203 20.648 9H16.9329C16.2745 11.3085 14.1344 13 11.5958 13C8.53296 13 6.05 10.5376 6.05 7.5ZM11.5958 5C10.2036 5 9.075 6.11929 9.075 7.5C9.075 8.88071 10.2036 10 11.5958 10C12.9881 10 14.1167 8.88071 14.1167 7.5C14.1167 6.11929 12.9881 5 11.5958 5ZM4.63833 30H1.41167C0.632025 30 0 29.3732 0 28.6V19.4C0 18.6268 0.632024 18 1.41167 18H4.63833C5.41798 18 6.05 18.6268 6.05 19.4L6.05 28.6C6.05 29.3732 5.41798 30 4.63833 30ZM8.06667 20C8.06667 18.8954 8.96956 18 10.0833 18H19.6906C20.0037 18 20.3125 18.0723 20.5925 18.2111L23.511 19.6584C23.9333 19.8677 24.2 20.2957 24.2 20.7639C24.2 21.4466 23.642 22 22.9536 22H18.6542C18.3757 22 18.15 22.2239 18.15 22.5C18.15 22.7761 18.3757 23 18.6542 23H21.8561C22.0728 23 22.2882 22.9653 22.4938 22.8974L30.1513 20.366C30.7865 20.156 31.4808 20.4412 31.7802 21.0351C32.064 21.5979 31.9127 22.2808 31.4173 22.6739L22.7357 29.5617C22.3781 29.8454 21.9339 30 21.4759 30H10.0833C8.96956 30 8.06667 29.1046 8.06667 28V20Z" fill="#161616"/>
</g>
<defs>
<clipPath id="clip0_7186_82">
<rect width="16.1333" height="16" fill="white" transform="scale(2)"/>
</clipPath>
</defs>
</svg>
