<svg width="33" height="32" viewBox="0 0 33 32" fill="none" xmlns="http://www.w3.org/2000/svg">
<path fill-rule="evenodd" clip-rule="evenodd" d="M16.1333 2C8.3367 2 2.01667 8.2678 2.01667 16C2.01667 23.7322 8.3367 30 16.1333 30C23.93 30 30.25 23.7322 30.25 16C30.25 8.2678 23.93 2 16.1333 2ZM24.2 16C24.2 17.1046 23.2971 18 22.1833 18H18.15V22C18.15 23.1046 17.2471 24 16.1333 24C15.0196 24 14.1167 23.1046 14.1167 22V18H10.0833C8.96956 18 8.06667 17.1046 8.06667 16C8.06667 14.8954 8.96956 14 10.0833 14H14.1167V10C14.1167 8.89543 15.0196 8 16.1333 8C17.2471 8 18.15 8.89543 18.15 10V14H22.1833C23.2971 14 24.2 14.8954 24.2 16Z" fill="#161616"/>
</svg>
