<svg width="33" height="32" viewBox="0 0 33 32" fill="none" xmlns="http://www.w3.org/2000/svg">
<path d="M10.4392 30C9.2434 30 8.53667 28.5984 9.21195 27.5661L25.1018 3.27273C25.6061 2.50909 26.2785 2 27.119 2H29.1361C29.9766 2 30.4809 3.27273 30.1447 4.54545L24.3396 27.6788C23.9964 29.0465 22.8146 30 21.4629 30H10.4392Z" fill="#161616"/>
<path d="M15.4821 10C16.6952 10 17.4257 11.3334 16.7655 12.3428L7.52006 26.4776C7.11708 27.0937 6.93444 27.7973 6.94574 28.4912C6.9576 29.2196 6.45333 30 5.71875 30H1.26931C0.250326 30 -0.351871 28.9989 0.223527 28.2615L13.7633 10.9091C14.193 10.3636 14.7659 10 15.4821 10Z" fill="#161616"/>
</svg>
