<svg width="33" height="32" viewBox="0 0 33 32" fill="none" xmlns="http://www.w3.org/2000/svg">
<path d="M14.1167 6C9.66157 6 6.05 9.58172 6.05 14C6.05 18.4183 9.66157 22 14.1167 22C16.3448 22 18.3587 21.1068 19.8207 19.6569C21.2826 18.2069 22.1833 16.2097 22.1833 14C22.1833 9.58172 18.5718 6 14.1167 6ZM2.01667 14C2.01667 7.37258 7.43402 2 14.1167 2C20.7993 2 26.2167 7.37258 26.2167 14C26.2167 16.5908 25.3872 18.9918 23.9795 20.9529L29.6593 26.5858C30.4469 27.3668 30.4469 28.6332 29.6593 29.4142C28.8718 30.1953 27.5949 30.1953 26.8073 29.4142L21.1275 23.7813C19.15 25.1774 16.7291 26 14.1167 26C7.43402 26 2.01667 20.6274 2.01667 14Z" fill="#161616"/>
</svg>
