<svg width="33" height="32" viewBox="0 0 33 32" fill="none" xmlns="http://www.w3.org/2000/svg">
<path d="M20.1688 6H30.2456C31.2798 6 32.1322 6.77208 32.2487 7.76676L32.2622 8V18C32.2622 19.1046 31.3594 20 30.2456 20C29.2114 20 28.359 19.2279 28.2425 18.2332L28.2289 18L28.2273 12.828L17.5549 23.4142C16.8284 24.1347 15.6853 24.1906 14.8942 23.5816L14.7042 23.4154L10.0739 18.8314L3.44289 25.411C2.65546 26.1921 1.37858 26.1923 0.590896 25.4114C-0.136197 24.6906 -0.1923 23.5561 0.422707 22.7714L0.59044 22.583L8.64618 14.59C9.37268 13.8693 10.5159 13.8133 11.3071 14.4224L11.4972 14.5885L16.1277 19.1728L25.3737 10H20.1688C19.1346 10 18.2822 9.22792 18.1657 8.23324L18.1522 8C18.1522 6.97433 18.9307 6.12899 19.9336 6.01346L20.1688 6Z" fill="#161616"/>
</svg>
